<svg width="192" height="16" viewBox="0 0 192 16" fill="none" xmlns="http://www.w3.org/2000/svg">
<path d="M0.789062 5H2.5625L4.9375 10.7969H5.03125L7.40625 5H9.17969V13H7.78906V7.50391H7.71484L5.50391 12.9766H4.46484L2.25391 7.49219H2.17969V13H0.789062V5ZM13.3516 13.1172C12.75 13.1172 12.2305 12.9922 11.793 12.7422C11.3581 12.4896 11.0234 12.1328 10.7891 11.6719C10.5547 11.2083 10.4375 10.6628 10.4375 10.0352C10.4375 9.41797 10.5547 8.8763 10.7891 8.41016C11.026 7.94141 11.3568 7.57682 11.7813 7.31641C12.2057 7.05339 12.7044 6.92188 13.2773 6.92188C13.6471 6.92188 13.9961 6.98177 14.3242 7.10156C14.6549 7.21875 14.9466 7.40104 15.1992 7.64844C15.4544 7.89583 15.6549 8.21094 15.8008 8.59375C15.9466 8.97396 16.0195 9.42708 16.0195 9.95312V10.3867H11.1016V9.43359H14.6641C14.6615 9.16276 14.6029 8.92187 14.4883 8.71094C14.3737 8.4974 14.2135 8.32943 14.0078 8.20703C13.8047 8.08464 13.5677 8.02344 13.2969 8.02344C13.0078 8.02344 12.7539 8.09375 12.5352 8.23437C12.3164 8.3724 12.1458 8.55469 12.0234 8.78125C11.9036 9.00521 11.8424 9.2513 11.8398 9.51953V10.3516C11.8398 10.7005 11.9036 11 12.0312 11.25C12.1589 11.4974 12.3372 11.6875 12.5664 11.8203C12.7956 11.9505 13.0638 12.0156 13.3711 12.0156C13.5768 12.0156 13.763 11.987 13.9297 11.9297C14.0964 11.8698 14.2409 11.7826 14.3633 11.668C14.4857 11.5534 14.5781 11.4115 14.6406 11.2422L15.9609 11.3906C15.8776 11.7396 15.7188 12.0443 15.4844 12.3047C15.2526 12.5625 14.9557 12.763 14.5938 12.9062C14.2318 13.0469 13.8177 13.1172 13.3516 13.1172ZM18.6299 9.48437V13H17.2158V7H18.5674V8.01953H18.6377C18.7757 7.68359 18.9958 7.41667 19.2979 7.21875C19.6025 7.02083 19.9788 6.92188 20.4268 6.92188C20.8408 6.92188 21.2015 7.01042 21.5088 7.1875C21.8187 7.36458 22.0583 7.62109 22.2275 7.95703C22.3994 8.29297 22.484 8.70052 22.4814 9.17969V13H21.0674V9.39844C21.0674 8.9974 20.9632 8.68359 20.7549 8.45703C20.5492 8.23047 20.264 8.11719 19.8994 8.11719C19.652 8.11719 19.432 8.17187 19.2393 8.28125C19.0492 8.38802 18.8994 8.54297 18.79 8.74609C18.6833 8.94922 18.6299 9.19531 18.6299 9.48437ZM26.5361 13.1172C25.9502 13.1172 25.4424 12.9883 25.0127 12.7305C24.583 12.4727 24.2497 12.112 24.0127 11.6484C23.7783 11.1849 23.6611 10.6432 23.6611 10.0234C23.6611 9.40365 23.7783 8.86068 24.0127 8.39453C24.2497 7.92839 24.583 7.56641 25.0127 7.30859C25.4424 7.05078 25.9502 6.92188 26.5361 6.92188C27.1221 6.92188 27.6299 7.05078 28.0596 7.30859C28.4893 7.56641 28.8213 7.92839 29.0557 8.39453C29.2926 8.86068 29.4111 9.40365 29.4111 10.0234C29.4111 10.6432 29.2926 11.1849 29.0557 11.6484C28.8213 12.112 28.4893 12.4727 28.0596 12.7305C27.6299 12.9883 27.1221 13.1172 26.5361 13.1172ZM26.5439 11.9844C26.8617 11.9844 27.1273 11.8971 27.3408 11.7227C27.5544 11.5456 27.7132 11.3086 27.8174 11.0117C27.9242 10.7148 27.9775 10.3841 27.9775 10.0195C27.9775 9.65234 27.9242 9.32031 27.8174 9.02344C27.7132 8.72396 27.5544 8.48568 27.3408 8.30859C27.1273 8.13151 26.8617 8.04297 26.5439 8.04297C26.2184 8.04297 25.9476 8.13151 25.7314 8.30859C25.5179 8.48568 25.3577 8.72396 25.251 9.02344C25.1468 9.32031 25.0947 9.65234 25.0947 10.0195C25.0947 10.3841 25.1468 10.7148 25.251 11.0117C25.3577 11.3086 25.5179 11.5456 25.7314 11.7227C25.9476 11.8971 26.2184 11.9844 26.5439 11.9844ZM35.3535 8.58594L34.0645 8.72656C34.028 8.59635 33.9642 8.47396 33.873 8.35938C33.7845 8.24479 33.6647 8.15234 33.5137 8.08203C33.3626 8.01172 33.1777 7.97656 32.959 7.97656C32.6647 7.97656 32.4173 8.04036 32.2168 8.16797C32.0189 8.29557 31.9212 8.46094 31.9238 8.66406C31.9212 8.83854 31.985 8.98047 32.1152 9.08984C32.248 9.19922 32.4668 9.28906 32.7715 9.35938L33.7949 9.57812C34.3626 9.70052 34.7845 9.89453 35.0605 10.1602C35.3392 10.4258 35.4798 10.7734 35.4824 11.2031C35.4798 11.5807 35.3691 11.9141 35.1504 12.2031C34.9342 12.4896 34.6335 12.7135 34.248 12.875C33.8626 13.0365 33.4199 13.1172 32.9199 13.1172C32.1855 13.1172 31.5944 12.9635 31.1465 12.6562C30.6986 12.3464 30.4316 11.9154 30.3457 11.3633L31.7246 11.2305C31.7871 11.5013 31.9199 11.7057 32.123 11.8437C32.3262 11.9818 32.5905 12.0508 32.916 12.0508C33.252 12.0508 33.5215 11.9818 33.7246 11.8437C33.9303 11.7057 34.0332 11.5352 34.0332 11.332C34.0332 11.1602 33.9668 11.0182 33.834 10.9062C33.7038 10.7943 33.5007 10.7083 33.2246 10.6484L32.2012 10.4336C31.6257 10.3138 31.1999 10.112 30.9238 9.82812C30.6478 9.54167 30.5111 9.17969 30.5137 8.74219C30.5111 8.3724 30.6113 8.05208 30.8145 7.78125C31.0202 7.50781 31.3053 7.29687 31.6699 7.14844C32.0371 6.9974 32.4603 6.92188 32.9395 6.92188C33.6426 6.92188 34.196 7.07161 34.5996 7.37109C35.0059 7.67057 35.2572 8.07552 35.3535 8.58594Z" fill="white" fill-opacity="0.5"/>
<path d="M166.789 5H168.563L170.938 10.7969H171.031L173.406 5H175.18V13H173.789V7.50391H173.715L171.504 12.9766H170.465L168.254 7.49219H168.18V13H166.789V5ZM178.422 13.1211C178.042 13.1211 177.699 13.0534 177.395 12.918C177.092 12.7799 176.853 12.5768 176.676 12.3086C176.501 12.0404 176.414 11.7096 176.414 11.3164C176.414 10.9779 176.477 10.6979 176.602 10.4766C176.727 10.2552 176.897 10.0781 177.113 9.94531C177.329 9.8125 177.573 9.71224 177.844 9.64453C178.117 9.57422 178.4 9.52344 178.691 9.49219C179.043 9.45573 179.328 9.42318 179.547 9.39453C179.766 9.36328 179.924 9.31641 180.023 9.25391C180.125 9.1888 180.176 9.08854 180.176 8.95312V8.92969C180.176 8.63542 180.089 8.40755 179.914 8.24609C179.74 8.08464 179.488 8.00391 179.16 8.00391C178.814 8.00391 178.539 8.07943 178.336 8.23047C178.135 8.38151 178 8.5599 177.93 8.76562L176.609 8.57812C176.714 8.21354 176.885 7.90885 177.125 7.66406C177.365 7.41667 177.658 7.23177 178.004 7.10937C178.35 6.98438 178.733 6.92188 179.152 6.92188C179.441 6.92188 179.729 6.95573 180.016 7.02344C180.302 7.09115 180.564 7.20312 180.801 7.35937C181.038 7.51302 181.228 7.72266 181.371 7.98828C181.517 8.25391 181.59 8.58594 181.59 8.98437V13H180.23V12.1758H180.184C180.098 12.3424 179.977 12.4987 179.82 12.6445C179.667 12.7878 179.473 12.9036 179.238 12.9922C179.007 13.0781 178.734 13.1211 178.422 13.1211ZM178.789 12.082C179.073 12.082 179.319 12.026 179.527 11.9141C179.736 11.7995 179.896 11.6484 180.008 11.4609C180.122 11.2734 180.18 11.069 180.18 10.8477V10.1406C180.135 10.1771 180.06 10.2109 179.953 10.2422C179.849 10.2734 179.732 10.3008 179.602 10.3242C179.471 10.3477 179.342 10.3685 179.215 10.3867C179.087 10.4049 178.977 10.4206 178.883 10.4336C178.672 10.4622 178.483 10.5091 178.316 10.5742C178.15 10.6393 178.018 10.7305 177.922 10.8477C177.826 10.9622 177.777 11.1107 177.777 11.293C177.777 11.5534 177.872 11.75 178.063 11.8828C178.253 12.0156 178.495 12.082 178.789 12.082ZM183.012 13V7H184.426V13H183.012ZM183.723 6.14844C183.499 6.14844 183.306 6.07422 183.145 5.92578C182.983 5.77474 182.902 5.59375 182.902 5.38281C182.902 5.16927 182.983 4.98828 183.145 4.83984C183.306 4.6888 183.499 4.61328 183.723 4.61328C183.949 4.61328 184.142 4.6888 184.301 4.83984C184.462 4.98828 184.543 5.16927 184.543 5.38281C184.543 5.59375 184.462 5.77474 184.301 5.92578C184.142 6.07422 183.949 6.14844 183.723 6.14844ZM190.622 8.58594L189.333 8.72656C189.297 8.59635 189.233 8.47396 189.142 8.35938C189.053 8.24479 188.933 8.15234 188.782 8.08203C188.631 8.01172 188.446 7.97656 188.228 7.97656C187.933 7.97656 187.686 8.04036 187.485 8.16797C187.287 8.29557 187.19 8.46094 187.192 8.66406C187.19 8.83854 187.254 8.98047 187.384 9.08984C187.517 9.19922 187.735 9.28906 188.04 9.35938L189.063 9.57812C189.631 9.70052 190.053 9.89453 190.329 10.1602C190.608 10.4258 190.748 10.7734 190.751 11.2031C190.748 11.5807 190.638 11.9141 190.419 12.2031C190.203 12.4896 189.902 12.7135 189.517 12.875C189.131 13.0365 188.688 13.1172 188.188 13.1172C187.454 13.1172 186.863 12.9635 186.415 12.6562C185.967 12.3464 185.7 11.9154 185.614 11.3633L186.993 11.2305C187.056 11.5013 187.188 11.7057 187.392 11.8437C187.595 11.9818 187.859 12.0508 188.185 12.0508C188.521 12.0508 188.79 11.9818 188.993 11.8437C189.199 11.7057 189.302 11.5352 189.302 11.332C189.302 11.1602 189.235 11.0182 189.103 10.9062C188.972 10.7943 188.769 10.7083 188.493 10.6484L187.47 10.4336C186.894 10.3138 186.468 10.112 186.192 9.82812C185.916 9.54167 185.78 9.17969 185.782 8.74219C185.78 8.3724 185.88 8.05208 186.083 7.78125C186.289 7.50781 186.574 7.29687 186.938 7.14844C187.306 6.9974 187.729 6.92188 188.208 6.92188C188.911 6.92188 189.465 7.07161 189.868 7.37109C190.274 7.67057 190.526 8.07552 190.622 8.58594Z" fill="white" fill-opacity="0.5"/>
<rect x="44.5" y="0.5" width="15" height="15" rx="3.5" fill="#18181B" stroke="#27272A"/>
<rect x="64.5" y="0.5" width="15" height="15" rx="3.5" fill="#4C1D95" stroke="#6D28D9"/>
<rect x="84.5" y="0.5" width="15" height="15" rx="3.5" fill="#5B21B6" stroke="#7C3AED"/>
<rect x="104.5" y="0.5" width="15" height="15" rx="3.5" fill="#6D28D9" stroke="#8B5CF6"/>
<rect x="124.5" y="0.5" width="15" height="15" rx="3.5" fill="#7C3AED" stroke="#A78BFA"/>
<rect x="144.5" y="0.5" width="15" height="15" rx="3.5" fill="#8B5CF6" stroke="#C4B5FD"/>
</svg>
